HIERARCHY
ROOT root     
{
	OFFSET 0.0000 0.0000 0.0000
	CHANNELS 6 Xposition Yposition Zposition Zrotation Yrotation Xrotation
	JOINT pelvis   
	{
		OFFSET 0.0000 0.0000 0.0000
		CHANNELS 3 Zrotation Yrotation Xrotation
		JOINT thorax   
		{
			OFFSET 0.0000 23.0750 -5.0000
			CHANNELS 3 Zrotation Yrotation Xrotation
			JOINT rclavicle
			{
				OFFSET 0.0000 28.0009 0.0000
				CHANNELS 3 Zrotation Yrotation Xrotation
				JOINT rhumerus 
				{
					OFFSET -18.5725 5.5939 0.0000
					CHANNELS 3 Zrotation Yrotation Xrotation
					JOINT rradius  
					{
						OFFSET -24.8459 0.0000 0.0000
						CHANNELS 3 Zrotation Yrotation Xrotation
						JOINT rhand    
						{
							OFFSET -24.5477 0.0000 0.0000
							CHANNELS 3 Zrotation Yrotation Xrotation
							End Site
							{
								OFFSET -8.1826 0.0000 0.0000
							}
						}
					}
				}
			}
			JOINT lclavicle
			{
				OFFSET 0.0000 28.0009 0.0000
				CHANNELS 3 Zrotation Yrotation Xrotation
				JOINT lhumerus 
				{
					OFFSET 18.5725 5.5939 0.0000
					CHANNELS 3 Zrotation Yrotation Xrotation
					JOINT lradius  
					{
						OFFSET 24.8459 0.0000 0.0000
						CHANNELS 3 Zrotation Yrotation Xrotation
						JOINT lhand    
						{
							OFFSET 24.5477 0.0000 0.0000
							CHANNELS 3 Zrotation Yrotation Xrotation
							End Site
							{
								OFFSET 8.1826 0.0000 0.0000
							}
						}
					}
				}
			}
			JOINT head     
			{
				OFFSET 0.0000 35.2030 0.0000
				CHANNELS 3 Zrotation Yrotation Xrotation
				End Site
				{
					OFFSET 0.0000 11.7343 0.0000
				}
			}
		}
		JOINT rfemur   
		{
			OFFSET -8.2817 0.0000 0.0000
			CHANNELS 3 Zrotation Yrotation Xrotation
			JOINT rtibia   
			{
				OFFSET 0.0000 -43.3627 0.0000
				CHANNELS 3 Zrotation Yrotation Xrotation
				JOINT rfoot    
				{
					OFFSET 0.0000 -38.2947 0.0000
					CHANNELS 3 Zrotation Yrotation Xrotation
					JOINT rtoes    
					{
						OFFSET 0.0000 0.0000 16.6054
						CHANNELS 3 Zrotation Yrotation Xrotation
						End Site
						{
							OFFSET 0.0000 0.0000 5.5351
						}
					}
				}
			}
		}
		JOINT lfemur   
		{
			OFFSET 8.2817 0.0000 0.0000
			CHANNELS 3 Zrotation Yrotation Xrotation
			JOINT ltibia   
			{
				OFFSET 0.0000 -43.3627 0.0000
				CHANNELS 3 Zrotation Yrotation Xrotation
				JOINT lfoot    
				{
					OFFSET 0.0000 -38.2947 0.0000
					CHANNELS 3 Zrotation Yrotation Xrotation
					JOINT ltoes    
					{
						OFFSET 0.0000 0.0000 16.6054
						CHANNELS 3 Zrotation Yrotation Xrotation
						End Site
						{
							OFFSET 0.0000 0.0000 5.5351
						}
					}
				}
			}
		}
	}
}
MOTION
Frames: 9
Frame Time: .0333333
91.647 61.961 14.979 75.8035 -84.6505 -18.8897 0 -0 0 -1.2526 -9.66569 5.45832 25.5515 -9.78345 8.70611e-06 56.1282 -8.3069 -51.1115 -0 6.71218 -0 -26.9501 14.6911 -3.53858 -21.753 11.831 -9.46334e-06 -51.8155 8.39766 -33.9301 0 -7.47954 0 34.2527 -4.85327 -1.49633 3.39414 1.23167 -48.2062 0.933137 -8.40158 -106.219 -0 -0 94.2564 0.000111866 -13.732 -27.3896 6.41383 1.68106e-05 -50.4939 -4.84148 -4.02334 -105.597 -0 -0 91.2102 0.000203497 17.5812 -27.3204 -8.27465 -8.28268e-06 -37.3714 
91.423 61.695 14.962 75.9728 -84.6268 -18.783 0 -0 0 -1.28249 -9.72775 5.26436 25.5472 -9.75901 1.76199e-05 56.3197 -7.95863 -51.0102 -3.63616e-08 6.85655 -6.06976e-07 -27.0284 14.7224 -3.55693 -21.8237 11.7198 -7.41927e-05 -51.9149 7.92764 -33.8185 3.98441e-08 -7.50357 -6.07618e-07 34.3383 -4.93077 -1.52425 3.3853 1.24131 -48.3605 0.80027 -8.33939 -106.561 -0 -0 94.8647 -4.5621e-05 -14.0067 -27.7102 6.61656 1.99389e-05 -50.8208 -4.72657 -4.12183 -105.969 -0 -0 91.8053 9.0034e-05 17.8697 -27.6548 -8.51091 -9.29911e-06 -37.6066 
91.192 61.455 14.944 76.0541 -84.5919 -18.5811 0 -0 0 -1.3004 -9.79393 5.0498 25.5483 -9.73479 -3.01945e-06 56.5311 -7.61963 -50.8597 -3.72428e-08 7.02035 -6.07141e-07 -27.0966 14.726 -3.56705 -21.8917 11.586 4.27023e-05 -52.0294 7.46956 -33.7219 3.99426e-08 -7.52183 -6.07636e-07 34.4276 -5.03453 -1.56074 3.37782 1.2511 -48.5244 0.654651 -8.27902 -106.872 -0 -0 95.4252 -8.74047e-05 -14.3059 -27.9976 6.82642 1.10546e-05 -51.1744 -4.59345 -4.23749 -106.309 -0 -0 92.3417 -0.000179214 18.1753 -27.9513 -8.74801 -3.39065e-05 -37.8747 
90.952 61.239 14.925 76.0557 -84.5434 -18.2908 0 -0 0 -1.30601 -9.86256 4.81973 25.5572 -9.71353 4.95482e-05 56.7548 -7.28311 -50.6688 -0 7.1927 -0 -27.1583 14.714 -3.57255 -21.9611 11.4378 -6.30607e-05 -52.1556 7.01725 -33.6478 4.00434e-08 -7.54056 -6.07655e-07 34.5133 -5.16038 -1.604 3.37212 1.26139 -48.6954 0.50096 -8.21903 -107.153 -0 -0 95.9368 9.34505e-05 -14.6332 -28.2584 7.04679 -3.03393e-05 -51.5303 -4.44003 -4.36919 -106.621 -0 -0 92.8236 -4.77218e-05 18.497 -28.2121 -8.98663 -8.3535e-05 -38.1559 
90.703 61.049 14.905 75.9593 -84.488 -17.9013 0 -0 0 -1.30189 -9.93369 4.57317 25.5805 -9.69143 2.54905e-05 56.9871 -6.95815 -50.4186 -0 7.3777 -0 -27.2234 14.6817 -3.57343 -22.0347 11.273 -8.74815e-05 -52.2895 6.5844 -33.5937 4.02401e-08 -7.57666 -6.0771e-07 34.5953 -5.29211 -1.64914 3.36981 1.27229 -48.8739 0.341742 -8.15858 -107.4 -0 -0 96.4019 2.81211e-05 -14.9892 -28.4991 7.2801 1.50848e-05 -51.8618 -4.26594 -4.51612 -106.905 -0 -0 93.2517 0.000165456 18.8334 -28.442 -9.22706 2.19695e-05 -38.4267 
90.444 60.883 14.883 75.7957 -84.4263 -17.4445 0 -0 0 -1.28808 -10.0063 4.32125 25.6189 -9.67414 -1.35169e-05 57.2092 -6.62418 -50.1422 -4.00664e-08 7.54452 -6.07673e-07 -27.2928 14.666 -3.57903 -22.1155 11.108 -1.43648e-05 -52.4242 6.15051 -33.5537 4.05162e-08 -7.62819 -6.07747e-07 34.6755 -5.42277 -1.69401 3.36872 1.2847 -49.0587 0.18192 -8.0973 -107.609 -0 -0 96.8193 -0.000129198 -15.3719 -28.7322 7.5288 2.26043e-05 -52.1419 -4.07175 -4.67467 -107.148 -0 -0 93.6279 1.33365e-05 19.1828 -28.651 -9.47034 -1.60978e-05 -38.6653 
90.172 60.74 14.86 75.5725 -84.355 -16.9323 0 -0 0 -1.268 -10.081 4.06563 25.6774 -9.65843 2.60095e-05 57.4166 -6.28274 -49.8314 -0 7.69006 -0 -27.3737 14.6681 -3.5906 -22.2102 10.9451 1.99129e-05 -52.5551 5.72161 -33.5105 0 -7.70602 0 34.7575 -5.53207 -1.73256 3.36806 1.29859 -49.2484 0.0236581 -8.03629 -107.774 -0 -0 97.1926 0.000128037 -15.779 -28.9672 7.79242 2.16716e-05 -52.3486 -3.86172 -4.84235 -107.353 -0 -0 93.9559 0.00015652 19.5371 -28.8501 -9.71641 2.0434e-05 -38.8493 
89.887 60.62 14.836 75.3195 -84.2786 -16.396 0 -0 0 -1.24569 -10.1592 3.79997 25.7632 -9.63352 1.28319e-05 57.6018 -5.9526 -49.4515 -4.15925e-08 7.82732 -6.07967e-07 -27.4847 14.6647 -3.60479 -22.3182 10.7776 5.13157e-05 -52.6785 5.31831 -33.4459 0 -7.82178 0 34.8439 -5.60272 -1.75935 3.36835 1.31498 -49.4345 -0.133401 -7.97667 -107.898 -0 -0 97.5222 1.91719e-05 -16.2001 -29.2095 8.06936 -4.1104e-05 -52.4772 -3.64186 -5.01646 -107.517 -0 -0 94.2393 -6.41424e-05 19.8908 -29.0498 -9.9643 1.08266e-05 -38.9725 
89.587 60.521 14.811 75.0202 -84.2043 -15.8312 0 -0 0 -1.2184 -10.239 3.5402 25.8712 -9.60695 8.17371e-05 57.7534 -5.6062 -49.0531 -0 7.9179 -0 -27.6182 14.7009 -3.63211 -22.4471 10.6231 2.6359e-05 -52.7877 4.9137 -33.3406 0 -7.9571 0 34.9459 -5.62848 -1.77304 3.36445 1.33351 -49.623 -0.283496 -7.9203 -107.969 -0 -0 97.8144 -0.000246834 -16.6204 -29.4652 8.35352 -6.18107e-06 -52.534 -3.41899 -5.18927 -107.632 -0 -0 94.4813 2.18585e-05 20.2324 -29.2614 -10.2124 2.05165e-05 -39.0322 
